<?xml version="1.0" standalone="no"?>
<!DOCTYPE svg PUBLIC "-//W3C//DTD SVG 20010904//EN"
 "http://www.w3.org/TR/2001/REC-SVG-20010904/DTD/svg10.dtd">
<svg version="1.0" xmlns="http://www.w3.org/2000/svg"
 width="820.000000pt" height="819.000000pt" viewBox="0 0 820.000000 819.000000"
 preserveAspectRatio="xMidYMid meet">

<g transform="translate(0.000000,819.000000) scale(0.100000,-0.100000)"
fill="#000000" stroke="none">
<path d="M2845 7464 c-223 -7 -580 -25 -679 -35 -305 -30 -589 -123 -792 -259
-102 -68 -286 -252 -354 -354 -133 -199 -215 -443 -254 -756 -34 -276 -41
-575 -41 -1865 0 -1690 12 -1917 122 -2260 74 -229 165 -386 317 -544 123
-127 163 -154 97 -67 -131 173 -213 368 -266 629 -56 284 -65 508 -72 1774 -8
1615 10 2096 93 2425 71 284 182 486 370 674 281 281 605 398 1210 436 296 18
2922 19 3209 0 470 -30 740 -101 995 -259 l55 -34 -76 74 c-177 173 -418 290
-723 352 -288 58 -525 66 -1906 69 -657 2 -1244 1 -1305 0z"/>
<path d="M7430 7412 c277 -330 440 -709 509 -1187 47 -324 61 -796 61 -2035 0
-1229 -15 -1714 -61 -2035 -66 -458 -230 -851 -481 -1150 -86 -102 -236 -249
-324 -317 -292 -225 -674 -376 -1099 -437 -324 -46 -806 -61 -2035 -61 -1229
0 -1711 15 -2035 61 -374 53 -719 179 -995 363 -112 74 -113 75 -60 26 220
-202 415 -325 672 -424 285 -110 552 -161 978 -188 292 -18 2988 -18 3280 0
518 33 862 114 1189 282 373 192 703 529 884 903 170 350 238 667 269 1252 18
338 18 2744 0 3080 -30 569 -92 869 -251 1219 -99 218 -292 477 -475 639 l-71
62 45 -53z"/>
<path d="M6563 6544 c50 -98 63 -252 29 -361 -47 -149 -173 -274 -321 -317
-75 -22 -204 -21 -280 3 l-61 19 18 -30 c43 -75 182 -164 290 -187 215 -45
434 65 529 265 38 78 38 80 38 204 0 124 0 126 -38 204 -38 81 -118 171 -186
210 l-33 18 15 -28z"/>
<path d="M5530 5567 c0 -4 27 -39 59 -78 236 -281 403 -672 451 -1059 13 -109
13 -371 -1 -480 -57 -466 -260 -882 -589 -1210 -330 -329 -745 -532 -1210
-589 -109 -14 -371 -14 -480 0 -348 43 -699 180 -965 377 l-60 44 40 -42 c63
-65 183 -163 289 -234 372 -249 845 -373 1283 -338 674 54 1251 407 1609 985
235 379 339 874 279 1332 -56 424 -251 836 -540 1135 -89 92 -165 165 -165
157z"/>
<path d="M3775 5504 c-273 -48 -517 -175 -715 -374 -258 -258 -390 -577 -390
-940 0 -403 160 -746 479 -1025 39 -34 34 -23 -24 55 -129 172 -213 378 -246
609 -18 130 -6 361 25 489 126 506 518 885 1029 993 134 29 379 31 510 6 174
-35 326 -96 482 -194 l70 -43 -83 79 c-187 179 -434 302 -691 345 -116 20
-335 20 -446 0z"/>
</g>
</svg>
